<?xml version="1.0"?>
<svg xmlns="http://www.w3.org/2000/svg" xmlns:xlink="http://www.w3.org/1999/xlink" version="1.1" width="320px" height="320px" viewBox="0 0 320 320"><rect x="0" y="0" width="320" height="320" fill="#ffffff" fill-opacity="1"/><path fill="#000000" fill-opacity="1" d="M15,15L85,15L85,25L15,25ZM115,15L125,15L125,25L115,25ZM135,15L145,15L145,25L135,25ZM155,15L175,15L175,25L155,25ZM235,15L305,15L305,25L235,25ZM15,25L25,25L25,35L15,35ZM75,25L85,25L85,35L75,35ZM95,25L105,25L105,35L95,35ZM115,25L125,25L125,35L115,35ZM145,25L165,25L165,35L145,35ZM185,25L205,25L205,35L185,35ZM235,25L245,25L245,35L235,35ZM295,25L305,25L305,35L295,35ZM15,35L25,35L25,45L15,45ZM35,35L65,35L65,45L35,45ZM75,35L85,35L85,45L75,45ZM135,35L155,35L155,45L135,45ZM175,35L225,35L225,45L175,45ZM235,35L245,35L245,45L235,45ZM255,35L285,35L285,45L255,45ZM295,35L305,35L305,45L295,45ZM15,45L25,45L25,55L15,55ZM35,45L65,45L65,55L35,55ZM75,45L85,45L85,55L75,55ZM95,45L125,45L125,55L95,55ZM135,45L175,45L175,55L135,55ZM185,45L195,45L195,55L185,55ZM215,45L225,45L225,55L215,55ZM235,45L245,45L245,55L235,55ZM255,45L285,45L285,55L255,55ZM295,45L305,45L305,55L295,55ZM15,55L25,55L25,65L15,65ZM35,55L65,55L65,65L35,65ZM75,55L85,55L85,65L75,65ZM105,55L115,55L115,65L105,65ZM175,55L185,55L185,65L175,65ZM195,55L205,55L205,65L195,65ZM235,55L245,55L245,65L235,65ZM255,55L285,55L285,65L255,65ZM295,55L305,55L305,65L295,65ZM15,65L25,65L25,75L15,75ZM75,65L85,65L85,75L75,75ZM95,65L115,65L115,75L95,75ZM125,65L145,65L145,75L125,75ZM155,65L195,65L195,75L155,75ZM205,65L215,65L215,75L205,75ZM235,65L245,65L245,75L235,75ZM295,65L305,65L305,75L295,75ZM15,75L85,75L85,85L15,85ZM95,75L105,75L105,85L95,85ZM115,75L125,75L125,85L115,85ZM135,75L145,75L145,85L135,85ZM155,75L165,75L165,85L155,85ZM175,75L185,75L185,85L175,85ZM195,75L205,75L205,85L195,85ZM215,75L225,75L225,85L215,85ZM235,75L305,75L305,85L235,85ZM105,85L135,85L135,95L105,95ZM145,85L165,85L165,95L145,95ZM175,85L225,85L225,95L175,95ZM15,95L65,95L65,105L15,105ZM75,95L115,95L115,105L75,105ZM125,95L135,95L135,105L125,105ZM145,95L195,95L195,105L145,105ZM225,95L235,95L235,105L225,105ZM245,95L255,95L255,105L245,105ZM265,95L275,95L275,105L265,105ZM285,95L295,95L295,105L285,105ZM15,105L25,105L25,115L15,115ZM35,105L65,105L65,115L35,115ZM85,105L95,105L95,115L85,115ZM115,105L125,105L125,115L115,115ZM135,105L145,105L145,115L135,115ZM155,105L185,105L185,115L155,115ZM215,105L225,105L225,115L215,115ZM245,105L255,105L255,115L245,115ZM265,105L275,105L275,115L265,115ZM285,105L295,105L295,115L285,115ZM15,115L45,115L45,125L15,125ZM55,115L85,115L85,125L55,125ZM95,115L105,115L105,125L95,125ZM115,115L125,115L125,125L115,125ZM155,115L175,115L175,125L155,125ZM185,115L195,115L195,125L185,125ZM225,115L235,115L235,125L225,125ZM265,115L285,115L285,125L265,125ZM25,125L35,125L35,135L25,135ZM45,125L65,125L65,135L45,135ZM85,125L95,125L95,135L85,135ZM135,125L155,125L155,135L135,135ZM175,125L185,125L185,135L175,135ZM205,125L275,125L275,135L205,135ZM295,125L305,125L305,135L295,135ZM15,135L35,135L35,145L15,145ZM75,135L95,135L95,145L75,145ZM105,135L125,135L125,145L105,145ZM135,135L145,135L145,145L135,145ZM155,135L205,135L205,145L155,145ZM215,135L225,135L225,145L215,145ZM235,135L245,135L245,145L235,145ZM25,145L55,145L55,155L25,155ZM65,145L75,145L75,155L65,155ZM95,145L115,145L115,155L95,155ZM155,145L165,145L165,155L155,155ZM195,145L205,145L205,155L195,155ZM215,145L255,145L255,155L215,155ZM265,145L275,145L275,155L265,155ZM285,145L295,145L295,155L285,155ZM15,155L25,155L25,165L15,165ZM35,155L55,155L55,165L35,165ZM75,155L85,155L85,165L75,165ZM95,155L165,155L165,165L95,165ZM185,155L195,155L195,165L185,165ZM265,155L305,155L305,165L265,165ZM55,165L75,165L75,175L55,175ZM85,165L115,165L115,175L85,175ZM125,165L135,165L135,175L125,175ZM145,165L155,165L155,175L145,175ZM165,165L185,165L185,175L165,175ZM195,165L225,165L225,175L195,175ZM235,165L245,165L245,175L235,175ZM255,165L265,165L265,175L255,175ZM285,165L305,165L305,175L285,175ZM15,175L45,175L45,185L15,185ZM75,175L95,175L95,185L75,185ZM105,175L115,175L115,185L105,185ZM125,175L145,175L145,185L125,185ZM165,175L195,175L195,185L165,185ZM15,185L35,185L35,195L15,195ZM45,185L55,185L55,195L45,195ZM65,185L75,185L75,195L65,195ZM85,185L95,185L95,195L85,195ZM135,185L145,185L145,195L135,195ZM155,185L165,185L165,195L155,195ZM175,185L185,185L185,195L175,195ZM235,185L255,185L255,195L235,195ZM285,185L295,185L295,195L285,195ZM15,195L25,195L25,205L15,205ZM35,195L55,195L55,205L35,205ZM75,195L85,195L85,205L75,205ZM105,195L115,195L115,205L105,205ZM135,195L165,195L165,205L135,205ZM185,195L205,195L205,205L185,205ZM215,195L225,195L225,205L215,205ZM265,195L285,195L285,205L265,205ZM295,195L305,195L305,205L295,205ZM15,205L25,205L25,215L15,215ZM35,205L45,205L45,215L35,215ZM55,205L75,205L75,215L55,215ZM85,205L105,205L105,215L85,215ZM135,205L145,205L145,215L135,215ZM155,205L165,205L165,215L155,215ZM185,205L265,205L265,215L185,215ZM275,205L305,205L305,215L275,215ZM15,215L25,215L25,225L15,225ZM45,215L55,215L55,225L45,225ZM65,215L95,215L95,225L65,225ZM155,215L195,215L195,225L155,225ZM215,215L265,215L265,225L215,225ZM275,215L295,215L295,225L275,225ZM95,225L115,225L115,235L95,235ZM125,225L145,225L145,235L125,235ZM165,225L175,225L175,235L165,235ZM205,225L225,225L225,235L205,235ZM255,225L265,225L265,235L255,235ZM285,225L295,225L295,235L285,235ZM15,235L85,235L85,245L15,245ZM95,235L115,235L115,245L95,245ZM125,235L165,235L165,245L125,245ZM185,235L195,235L195,245L185,245ZM215,235L225,235L225,245L215,245ZM235,235L245,235L245,245L235,245ZM255,235L265,235L265,245L255,245ZM275,235L285,235L285,245L275,245ZM15,245L25,245L25,255L15,255ZM75,245L85,245L85,255L75,255ZM105,245L115,245L115,255L105,255ZM125,245L135,245L135,255L125,255ZM145,245L155,245L155,255L145,255ZM175,245L185,245L185,255L175,255ZM215,245L225,245L225,255L215,255ZM255,245L305,245L305,255L255,255ZM15,255L25,255L25,265L15,265ZM35,255L65,255L65,265L35,265ZM75,255L85,255L85,265L75,265ZM95,255L105,255L105,265L95,265ZM145,255L195,255L195,265L145,265ZM205,255L305,255L305,265L205,265ZM15,265L25,265L25,275L15,275ZM35,265L65,265L65,275L35,275ZM75,265L85,265L85,275L75,275ZM95,265L115,265L115,275L95,275ZM125,265L145,265L145,275L125,275ZM215,265L265,265L265,275L215,275ZM15,275L25,275L25,285L15,285ZM35,275L65,275L65,285L35,285ZM75,275L85,275L85,285L75,285ZM95,275L105,275L105,285L95,285ZM135,275L165,275L165,285L135,285ZM185,275L195,275L195,285L185,285ZM205,275L215,275L215,285L205,285ZM245,275L265,275L265,285L245,285ZM275,275L295,275L295,285L275,285ZM15,285L25,285L25,295L15,295ZM75,285L85,285L85,295L75,295ZM95,285L135,285L135,295L95,295ZM145,285L155,285L155,295L145,295ZM175,285L225,285L225,295L175,295ZM265,285L285,285L285,295L265,295ZM295,285L305,285L305,295L295,295ZM15,295L85,295L85,305L15,305ZM95,295L105,295L105,305L95,305ZM115,295L125,295L125,305L115,305ZM165,295L185,295L185,305L165,305ZM195,295L205,295L205,305L195,305ZM215,295L285,295L285,305L215,305Z"/></svg>
